<?xml version="1.0" encoding="utf-8"?>
<!-- Generator: Adobe Illustrator 17.1.0, SVG Export Plug-In . SVG Version: 6.00 Build 0)  -->
<!DOCTYPE svg PUBLIC "-//W3C//DTD SVG 1.1//EN" "http://www.w3.org/Graphics/SVG/1.1/DTD/svg11.dtd">
<svg version="1.1" id="Layer_1" xmlns="http://www.w3.org/2000/svg" xmlns:xlink="http://www.w3.org/1999/xlink" x="0px" y="0px"
	 viewBox="0 0 800 800" enable-background="new 0 0 800 800" xml:space="preserve">
<g id="Layer_1_1_" display="none">
	<g display="inline">
		<path d="M452.7,638.6c0,0.2,0.1,0.5,0.1,0.7c0,29.3-23.7,53-52.9,53c-29.2,0-52.9-23.8-52.9-53c0-0.2,0.1-0.5,0.1-0.7
			C178,633.9,134.7,606.4,134.7,573c0-10.5,4.6-20.3,15.7-29.1c79.9-89,103.6-64.4,103.6-196.3c0-87.9,3.6-168.6,109.5-183.1
			c-2.1-4.9-3.3-10.2-3.3-15.8c0-22,17.7-39.8,39.6-39.8s39.6,17.8,39.6,39.8c0,5.6-1.2,11-3.3,15.8
			C542,179,545.6,259.6,545.6,347.6c0,132.3,23.9,107,104.4,197c10.5,8.6,14.9,18.2,14.9,28.3C665.2,606.4,620.7,633.9,452.7,638.6z
			 M399.9,665.8c14.6,0,26.4-11.8,26.4-26.5c0-0.1,0-0.2,0-0.2c-8.6,0.1-17.2,0.2-26.4,0.2c-9.2,0-17.8-0.1-26.4-0.2
			c0,0.1,0,0.2,0,0.2C373.5,654,385.3,665.8,399.9,665.8z M399.9,135.4c-7.3,0-13.2,6-13.2,13.3s5.9,13.2,13.2,13.2
			c7.3,0,13.2-6,13.2-13.3S407.3,135.4,399.9,135.4z M633.4,565.2c0,0-20.2-22.7-53.3-52.9c-45.2-41.2-60.8-60.7-60.8-164.8
			c0-101.6-5.5-159.1-119.4-159.1s-119.4,57.5-119.4,159.1c0,104.1-15.7,123.6-60.9,164.8c-32.4,29.6-52.9,52.3-52.9,52.3
			c-5.6,4.5-5.6,7.1-5.6,8.3c0,1.6,2.7,39.8,238.7,39.8s238.7-38.2,238.7-39.8C638.7,572,638.7,569.5,633.4,565.2z"/>
	</g>
</g>
<g id="Layer_2">
	<g>
		<path fill="#6D7B92" d="M654.3,310.4l-0.1-0.2c-2.3-4.3-6.7-7-11.6-7c-2.1,0-4.1,0.5-6,1.5c-5.6,3-8.4,9.5-6.5,15.5l0.1,0.2
			c50.8,121.9-7,262.4-128.9,313.3c-29.4,12.3-60.4,18.5-92.1,18.5c-97,0-183.9-57.9-221.3-147.4C137,383,194.8,242.4,316.8,191.5
			c29.3-12.2,60.4-18.4,92.2-18.4c21.9,0,43.7,3,64.8,8.9l-50.9,29.2c-6.3,3.6-8.4,11.5-4.8,17.9c2.3,4,6.7,6.5,11.4,6.5
			c2.3,0,4.5-0.6,6.5-1.7l72.9-42.2c6.1-3.5,8.2-11.5,4.7-17.7l-42.2-72.9c-2.3-4-6.7-6.5-11.4-6.5c-2.3,0-4.5,0.6-6.5,1.7
			c-6.3,3.6-8.4,11.5-4.8,17.9l24.1,40.8c-21.1-5.2-42.6-7.9-64.1-7.9c-57.1,0-113.8,19-159.7,53.6c-47.3,35.7-80.7,84.8-96.3,142.2
			c-18.7,68.4-9.6,140,25.6,201.6S270.6,650.3,339,669c22.9,6.2,46.5,9.4,70,9.4l0,0c57.1,0,113.8-19,159.7-53.6
			C616,589.1,649.4,540,665,482.6C680.7,426.1,676.9,365,654.3,310.4z"/>
		<path fill="#6D7B92" d="M358.6,417.1l-38.3,38.6v21.7h89.2v-25H357l24.9-25.3c7.1-6.9,13.4-14.6,18.6-22.9
			c3.5-6,5.3-12.5,5.3-19.4c0.6-11.1-3.7-21.7-12-29c-8.1-6.9-18.4-10.6-28.9-10.4c-9.2-0.4-18.5,1.9-26.7,6.5l-0.1,0.1
			c-7.5,5-13.9,11.4-18.8,19.2l-1.4,2.3l21.5,11.4l1.2-2.2c4.7-8.6,13.6-14.1,23.2-14.4h0.4c4.5,0,8.9,1.7,12.3,4.7
			c3,2.6,4.8,6.6,4.8,10.7c-0.1,5.1-1.7,9.8-4.9,13.7C370.9,404.4,365,411,358.6,417.1z"/>
		<polygon fill="#6D7B92" points="499.2,477.4 499.2,446.1 514.1,446.1 514.1,422.1 499.2,422.1 499.2,399.7 474.3,399.7 474.3,422 
			451.2,421.7 496.1,347.7 467.9,347.7 421.2,424.3 421.2,446.1 474.3,446.1 474.3,477.4 		"/>
	</g>
</g>
</svg>
