<?xml version="1.0" encoding="utf-8"?>
<!-- Generator: Adobe Illustrator 17.1.0, SVG Export Plug-In . SVG Version: 6.00 Build 0)  -->
<!DOCTYPE svg PUBLIC "-//W3C//DTD SVG 1.1//EN" "http://www.w3.org/Graphics/SVG/1.1/DTD/svg11.dtd">
<svg version="1.1" id="Layer_1" xmlns="http://www.w3.org/2000/svg" xmlns:xlink="http://www.w3.org/1999/xlink" x="0px" y="0px"
	 viewBox="0 0 800 800" enable-background="new 0 0 800 800" xml:space="preserve">
<g>
	<path fill="#6D7B92" d="M197,592.2c-95.6,0-173.4-77.8-173.4-173.4S101.4,245.3,197,245.3c57.3,0.2,111.2,29.2,143.4,76.6
		c17.5,2.5,58.9,7.3,127.2,9.5c96.4,3,222.7,14.1,224.1,14.2c36.6,3.3,78.4,14.5,78.4,73.3c0,16.7-3.9,36.9-6.6,44.2
		c0,0.2-0.2,0.3-0.2,0.5c-10.9,28.6-37.7,28.6-50.6,28.6c0,0,0,0-0.2,0h-6.4h-27.8c-10.6,0-20.8-3.9-28.6-11.1
		c-0.3-0.3-0.6-0.5-0.8-0.8l-4.7-4.7c-0.8-0.5-1.6-0.9-2.2-1.6H612l-6.9,6.9c-0.2,0.2-0.3,0.3-0.3,0.3c-8,7.7-18.4,11.9-29.4,11.9
		h-11.4c-10.6,0-20.6-3.9-28.4-10.9c-0.3-0.2-0.5-0.5-0.8-0.6l-7.3-7.3c-1.9,0-4.7,0-6.9,0.2l-5.3,5.3c-0.2,0.2-0.3,0.3-0.6,0.6
		l-2.3,2.2c-0.3,0.3-0.6,0.6-0.9,0.9c-3.1,2.7-6.3,4.1-7.8,4.7h-0.2c-5.8,3-12.2,4.4-19.7,4.4h-11.9c-3.9,0-8,0.2-12,0.3h-0.6
		c-0.9,0-1.9,0-2.8,0c-10.2-0.8-16.4-7.2-20.2-11.1h-17.8c-3.4,5.9-10,15-22.3,16.9c-24.8,4.7-43.8,10.9-53.3,14.4
		C311.3,561.9,256.1,592.2,197,592.2z M197,292.2c-69.7,0-126.6,56.7-126.6,126.6S127.2,545.3,197,545.3
		c45.2,0,87.2-24.2,109.7-63.3c2.5-4.4,6.3-7.7,10.9-9.7c1.1-0.5,25.2-10.9,62.7-18.6c4.1-7,13-19.1,29.7-19.1h31.9
		c11.6,0,19.7,6.1,24.8,10.9c1.7,0,3.3,0,5,0h11.6l4.1-4.1c1.2-1.4,2.7-2.7,4.1-3.9c5.9-5,12.8-8.3,20.2-9.5c0.2,0,0.5,0,0.6-0.2
		c3.6-0.5,16.9-0.6,17-0.6c10.2,0,20.2,3.8,28,10.5c0.3,0.3,0.6,0.6,0.9,0.8c0.6,0.6,1.6,1.4,2.5,2.5l5.2,5.2h7.5l5-5
		c0.9-1.1,1.9-2,2.8-3l0.2-0.2c2.7-3,9.5-10.9,23.9-10.9h38.6c8.4,0,16.9,2.7,23.9,7.5c3.1,1.6,5.5,3.4,7.2,5.3l5.5,5.5h32.3l0,0
		c3.1,0,5.6,0,7.2-0.2c1.3-5.3,3.3-16.7,3.3-26.4c0-13.9-3.3-17-4.5-18.1c-3.1-3-11.1-6.7-31.1-8.6c-1.3-0.2-126.3-11.1-221.3-13.9
		c-97.7-3-142.5-11.4-144.4-11.9c-6.6-1.3-12.3-5.3-15.8-11.1C283.4,316.6,241.6,292.3,197,292.2z M146.7,392.3
		c-14.7,0-26.6,11.9-26.6,26.6c0,14.7,11.9,26.6,26.6,26.6s26.6-11.9,26.6-26.6C173.3,404.2,161.3,392.3,146.7,392.3z"/>
</g>
</svg>
