<?xml version="1.0" encoding="utf-8"?>
<!-- Generator: Adobe Illustrator 17.1.0, SVG Export Plug-In . SVG Version: 6.00 Build 0)  -->
<!DOCTYPE svg PUBLIC "-//W3C//DTD SVG 1.1//EN" "http://www.w3.org/Graphics/SVG/1.1/DTD/svg11.dtd">
<svg version="1.1" id="Layer_1" xmlns="http://www.w3.org/2000/svg" xmlns:xlink="http://www.w3.org/1999/xlink" x="0px" y="0px"
	 viewBox="0 0 800 800" enable-background="new 0 0 800 800" xml:space="preserve">
<g id="Layer_1_1_" display="none">
	<g display="inline">
		<path d="M452.8,638c0,0.2,0.1,0.5,0.1,0.7c0,29.3-23.7,53-52.9,53c-29.2,0-52.9-23.8-52.9-53c0-0.2,0.1-0.5,0.1-0.7
			c-169.1-4.6-212.4-32.2-212.4-65.5c0-10.5,4.6-20.3,15.7-29.1c79.9-89.1,103.6-64.4,103.6-196.3c0-87.9,3.6-168.6,109.5-183.1
			c-2.1-4.9-3.3-10.2-3.3-15.8c0-22,17.7-39.8,39.6-39.8s39.6,17.8,39.6,39.8c0,5.6-1.2,11-3.3,15.8c106,14.4,109.7,95,109.7,183
			c0,132.3,23.9,107,104.4,197c10.5,8.6,14.9,18.2,14.9,28.3C665.2,605.8,620.8,633.3,452.8,638z M400,665.2
			c14.6,0,26.4-11.8,26.4-26.5c0-0.1,0-0.2,0-0.2c-8.6,0.1-17.2,0.2-26.4,0.2c-9.2,0-17.8-0.1-26.4-0.2c0,0.1,0,0.2,0,0.2
			C373.5,653.4,385.3,665.2,400,665.2z M400,134.8c-7.3,0-13.2,6-13.2,13.3s5.9,13.2,13.2,13.2c7.3,0,13.2-6,13.2-13.3
			S407.3,134.8,400,134.8z M633.4,564.6c0,0-20.2-22.7-53.3-52.9c-45.2-41.2-60.8-60.7-60.8-164.8c0-101.6-5.5-159.1-119.4-159.1
			s-119.4,57.5-119.4,159.1c0,104.1-15.7,123.6-60.9,164.8c-32.4,29.6-52.9,52.3-52.9,52.3c-5.6,4.5-5.6,7.1-5.6,8.3
			c0,1.6,2.7,39.8,238.7,39.8s238.7-38.2,238.7-39.8C638.7,571.4,638.7,568.9,633.4,564.6z"/>
	</g>
</g>
<g id="Layer_2" display="none">
	<g display="inline">
		<path d="M648.2,322.8l-0.2-0.5c-2.8-5.3-8.3-8.6-14.2-8.6c-2.5,0-5.1,0.6-7.4,1.8c-6.9,3.7-10.2,11.7-8,19.1l0.2,0.5
			c50.2,120.3-6.9,259.1-127.2,309.4c-29.1,12.1-59.7,18.3-90.9,18.3c-95.8,0-181.6-57.1-218.5-145.5
			c-50.3-120.3,6.8-259.1,127.2-309.4c29-12.1,59.6-18.2,91.1-18.2c19.2,0,38.3,2.3,56.9,6.9l-44.6,25.5c-7.7,4.5-10.3,14.1-5.9,22
			c2.9,5,8.2,8,14,8c2.8,0,5.5-0.7,8.1-2.1l72.9-42.2c7.5-4.3,10.1-14.1,5.8-21.8l-42.2-72.9c-2.9-5-8.2-8-14-8
			c-2.8,0-5.5,0.7-8.1,2.1c-7.7,4.5-10.3,14.1-5.9,21.9l20.6,34.8c-19.1-4.2-38.5-6.4-58-6.4c-57.8,0-115.1,19.2-161.5,54.2
			c-47.9,36.1-81.6,85.8-97.4,143.8c-18.9,69.2-9.7,141.6,25.9,203.9c35.6,62.2,93.3,106.9,162.6,125.9c23.2,6.3,47,9.5,70.8,9.5
			l0,0c57.8,0,115.1-19.2,161.5-54.2c47.9-36.1,81.6-85.8,97.4-143.8C674.9,439.8,671.1,377.9,648.2,322.8z"/>
		<path d="M347.7,428.4L308.4,468v26h95.2v-31h-48.4l19.9-20.2c7.3-7.1,13.7-14.9,19-23.4l0.1-0.1c3.8-6.4,5.7-13.4,5.8-20.8
			c0.7-12-4.1-23.4-13-31.3l-0.1-0.1c-8.7-7.3-19.6-11.3-30.8-11.1c-9.8-0.4-19.6,2-28.2,6.9l-0.3,0.2c-7.9,5.2-14.5,12-19.7,20.1
			l-3.2,5l27,14.4l2.6-4.8c4.2-7.7,12.1-12.6,20.7-12.8h0.3c3.8,0,7.4,1.4,10.2,3.9l0.1,0.1c2.4,2,3.8,5.2,3.8,8.3
			c-0.1,4.5-1.5,8.5-4.2,11.9C359.8,415.9,353.9,422.4,347.7,428.4z"/>
		<polygon points="493.3,493.9 493.3,462.6 508.2,462.6 508.2,432.6 493.3,432.6 493.3,410.2 462.4,410.2 462.4,432.5 447.6,432.2 
			492.6,358.2 457.3,358.2 409.3,436.9 409.3,462.6 462.4,462.6 462.4,493.9 		"/>
	</g>
</g>
<g id="Layer_3">
	<g>
		<g>
			<path fill="#6D7B92" d="M579.4,97.9H444.9c-0.1,0-0.2,0-0.4,0c-10.1-13.6-26.3-22.4-44.5-22.4s-34.4,8.8-44.5,22.4
				c-0.1,0-0.2,0-0.4,0H220.6c-36.7,0-66.6,29.9-66.6,66.6v493.4c0,36.7,29.9,66.6,66.6,66.6h358.8c36.7,0,66.6-29.9,66.6-66.6
				V164.5C646,127.8,616.1,97.9,579.4,97.9z M400,96.5c18.9,0,34.3,15.4,34.3,34.3V142c0,5.8,4.7,10.5,10.5,10.5h44.9
				c6.6,0,11.9,5.3,11.9,11.9s-5.3,11.9-11.9,11.9H310.3c-6.6,0-11.9-5.3-11.9-11.9s5.3-11.9,11.9-11.9h44.9
				c5.8,0,10.5-4.7,10.5-10.5v-11.2C365.7,111.9,381.1,96.5,400,96.5z M310.3,197.5h179.4c18.2,0,32.9-14.8,32.9-32.9
				c0-0.2,0-0.5,0-0.7h56.8c0.4,0,0.7,0.3,0.7,0.7V658c0,0.4-0.3,0.7-0.7,0.7H220.6c-0.4,0-0.7-0.3-0.7-0.7V164.5
				c0-0.4,0.3-0.7,0.7-0.7h56.8c0,0.2,0,0.5,0,0.7C277.4,182.7,292.1,197.5,310.3,197.5z M625,657.9c0,25.1-20.4,45.6-45.6,45.6
				H220.6c-25.1,0-45.6-20.4-45.6-45.6V164.5c0-25.1,20.4-45.6,45.6-45.6H346c-0.8,3.8-1.3,7.8-1.3,11.9v0.7h-34.3
				c-9.8,0-18.7,4.3-24.7,11.2h-65c-12,0-21.7,9.7-21.7,21.7v493.4c0,12,9.7,21.7,21.7,21.7h358.8c12,0,21.7-9.7,21.7-21.7V164.5
				c0-12-9.7-21.7-21.7-21.7h-65c-6-6.9-14.9-11.2-24.7-11.2h-34.3v-0.7c0-4.1-0.5-8.1-1.3-11.9h125.4c25.1,0,45.6,20.4,45.6,45.6
				v493.3H625z"/>
			<path fill="#6D7B92" d="M400,163.8c5.8,0,10.5-4.7,10.5-10.5v-22.4c0-5.8-4.7-10.5-10.5-10.5s-10.5,4.7-10.5,10.5v22.4
				C389.5,159.1,394.2,163.8,400,163.8z"/>
			<path fill="#6D7B92" d="M388.8,320.8h134.6c5.8,0,10.5-4.7,10.5-10.5s-4.7-10.5-10.5-10.5H388.8c-5.8,0-10.5,4.7-10.5,10.5
				S383,320.8,388.8,320.8z"/>
			<path fill="#6D7B92" d="M269.2,302.9c-4.1,4.1-4.1,10.8,0,14.9l22.4,22.4c2.1,2.1,4.7,3.1,7.4,3.1c2.7,0,5.4-1,7.4-3.1l44.9-44.9
				c4.1-4.1,4.1-10.8,0-14.9s-10.8-4.1-14.9,0L299,317.8l-15-15C280,298.8,273.3,298.8,269.2,302.9z"/>
			<path fill="#6D7B92" d="M388.8,432.9h134.6c5.8,0,10.5-4.7,10.5-10.5s-4.7-10.5-10.5-10.5H388.8c-5.8,0-10.5,4.7-10.5,10.5
				S383,432.9,388.8,432.9z"/>
			<path fill="#6D7B92" d="M336.5,392.6L299.1,430l-15-15c-4.1-4.1-10.8-4.1-14.9,0s-4.1,10.8,0,14.9l22.4,22.4
				c2.1,2.1,4.7,3.1,7.4,3.1s5.4-1,7.4-3.1l44.9-44.9c4.1-4.1,4.1-10.8,0-14.9C347.3,388.5,340.6,388.5,336.5,392.6L336.5,392.6z"/>
			<path fill="#6D7B92" d="M388.8,545.1h134.6c5.8,0,10.5-4.7,10.5-10.5s-4.7-10.5-10.5-10.5H388.8c-5.8,0-10.5,4.7-10.5,10.5
				C378.3,540.4,383,545.1,388.8,545.1z"/>
			<path fill="#6D7B92" d="M336.5,504.7l-37.4,37.4l-15-15c-4.1-4.1-10.8-4.1-14.9,0s-4.1,10.8,0,14.9l22.4,22.4
				c2.1,2.1,4.7,3.1,7.4,3.1s5.4-1,7.4-3.1l44.9-44.9c4.1-4.1,4.1-10.8,0-14.9C347.3,500.6,340.6,500.6,336.5,504.7L336.5,504.7z"/>
		</g>
	</g>
</g>
</svg>
