<?xml version="1.0" encoding="utf-8"?>
<!-- Generator: Adobe Illustrator 17.1.0, SVG Export Plug-In . SVG Version: 6.00 Build 0)  -->
<!DOCTYPE svg PUBLIC "-//W3C//DTD SVG 1.1//EN" "http://www.w3.org/Graphics/SVG/1.1/DTD/svg11.dtd">
<svg version="1.1" id="Layer_1" xmlns="http://www.w3.org/2000/svg"  x="0px" y="0px"
	 viewBox="0 0 800 800" enable-background="new 0 0 800 800" xml:space="preserve">
<path fill="#6D7B92" d="M275,723.4H100c-13,0-23.4-10.5-23.4-23.4V325c0-13,10.5-23.4,23.4-23.4h175.2c12.5,0,22.7,9.7,23.4,21.9
	c10.2-2.5,17.8-6.3,22.7-11.1c26.7-27.5,55.6-87.3,55.6-153.6c0-5.8-0.2-11.1-0.2-15.8c-0.5-22.7-0.8-40.5,12.7-53.8
	c8.3-8.3,19.5-12.7,32-12.7c35.9,0,77.5,37.8,88.9,80.9c11.7,44.5,6.7,82.8,2.2,116.4c-0.2,0.8-0.2,1.7-0.3,2.5h134.1
	c42.7,0,77.3,34.7,77.3,77.3c0,20.9-8.3,40.3-22.3,54.5c8.3,12,13,26.4,13.1,41.3v0.2c0,21.4-9.5,41.4-25,55.2
	c2,6.9,3.1,14.1,3.1,21.4c0,22-9.5,42.2-25.6,55.8c1.4,5.8,2.2,11.7,2.2,17.7c0,53.6-49.2,65.2-72.8,70.6
	C567.3,677,509.5,685,441.6,685l0,0c-16.7,0-33.4-0.5-49.4-1.4c-15.3-0.9-32.8-3-49.7-5c-15-1.7-30.3-3.6-43.9-4.5V700
	C298.4,713,288,723.4,275,723.4z M123.4,676.6h128.1V650c0-12.7,10.2-23.1,22.8-23.4c20.8-0.5,47.7,2.7,73.4,5.6
	c17,2,33.1,3.9,47,4.7c15.2,0.9,30.8,1.4,46.6,1.4c64.1,0,117.5-7.2,143.9-13.4c36.6-8.6,36.6-15.8,36.6-25c0-5.2-1.4-10-4.2-14.4
	c-3.8-5.9-4.7-13.1-2.5-19.8c2.2-6.7,7.2-12,13.6-14.5c10.2-4.1,16.6-13.8,16.6-24.7c0-7.2-3-12.7-5.5-16.1
	c-4.4-5.9-5.8-13.4-3.8-20.5s7.2-12.7,14.1-15.3c10-3.9,16.9-13.8,16.9-24.5c-0.2-10-5.9-19.4-15-23.8c-8.6-4.2-13.6-13.1-13-22.7
	c0.6-9.5,7-17.7,16.1-20.6c12.5-4.1,21.1-15.8,21.1-28.9c0-16.9-13.6-30.5-30.5-30.5h-160c-6.6,0-12.8-2.7-17.2-7.5
	c-4.4-4.8-6.7-11.2-6.1-17.8c0.8-10,2-19.8,3.4-30.2c4.1-30.8,8.3-62.8-1.1-98.3c-6.7-25.5-29.5-43.8-41.4-45.9
	c-0.3,4.7-0.2,12.2,0,18.4c0.2,5,0.2,10.5,0.2,16.7c0,69.1-27.7,143.9-68.9,186.2c-16.9,17.3-43.3,26.9-78.6,28.3
	c-6.4,0.3-12.5-2-17.2-6.6c-4.7-4.5-7.2-10.5-7.2-16.9v-1.6H123.4V676.6z M175,673c-26.7,0-48.4-21.7-48.4-48.4s21.7-48.4,48.4-48.4
	s48.4,21.7,48.4,48.4S201.7,673,175,673z"/>
</svg>
